<?xml version="1.0" standalone="no"?>
<!DOCTYPE svg PUBLIC "-//W3C//DTD SVG 20010904//EN"
 "http://www.w3.org/TR/2001/REC-SVG-20010904/DTD/svg10.dtd">
<svg version="1.0" xmlns="http://www.w3.org/2000/svg"
 width="314.000000pt" height="314.000000pt" viewBox="0 0 314.000000 314.000000"
 preserveAspectRatio="xMidYMid meet">
<metadata>
Created by potrace 1.11, written by Peter Selinger 2001-2013
</metadata>
<g transform="translate(0.000000,314.000000) scale(0.100000,-0.100000)"
fill="#000000" stroke="none">
<path d="M1615 2700 c-38 -12 -105 -67 -105 -86 0 -21 33 -17 86 11 54 29 81
31 130 10 50 -21 73 -52 74 -101 0 -53 17 -69 56 -53 36 14 77 14 132 -2 52
-14 100 -69 131 -147 l21 -53 -25 -47 c-27 -50 -31 -77 -15 -87 35 -22 75
-154 58 -191 -8 -16 -8 -27 0 -36 15 -19 17 -50 5 -74 -7 -11 -41 -33 -78 -49
-73 -31 -150 -31 -167 -1 -15 26 -44 18 -73 -20 -76 -99 -265 -102 -334 -5
-12 16 -21 34 -21 40 0 6 -9 15 -20 21 -18 9 -27 6 -56 -19 -58 -52 -93 -65
-169 -65 -85 0 -125 18 -150 71 -23 48 -22 89 5 125 22 30 38 88 24 89 -101 8
-135 51 -129 162 2 37 11 80 19 96 23 44 108 92 167 94 47 2 49 3 55 35 5 25
2 38 -14 55 -40 43 -5 96 81 123 48 15 56 15 107 0 50 -15 56 -15 66 -1 32 44
-32 87 -118 80 -113 -10 -203 -85 -210 -176 -3 -41 -5 -44 -63 -75 -71 -38
-88 -54 -114 -108 -26 -53 -32 -86 -32 -169 1 -82 20 -129 67 -158 32 -20 34
-23 27 -57 -28 -129 35 -252 129 -252 28 0 29 -2 24 -33 -3 -19 -8 -103 -11
-188 -3 -85 -8 -183 -11 -219 -8 -82 -8 -226 -1 -263 16 -78 66 -172 130 -241
21 -22 127 -66 160 -66 30 0 38 -30 43 -151 4 -128 14 -156 47 -143 9 3 18 18
18 33 3 49 -1 176 -6 208 -5 36 12 51 55 47 126 -10 315 148 246 205 -11 9
-19 3 -39 -31 -45 -77 -111 -109 -231 -113 -125 -4 -225 38 -284 118 -84 112
-87 124 -86 292 1 83 5 213 9 290 5 77 8 165 7 196 l0 55 53 11 c29 7 72 23
95 38 l42 27 39 -41 c59 -61 112 -85 186 -84 78 1 127 17 176 55 36 28 42 30
108 24 54 -4 82 -1 118 13 l47 18 3 -46 c6 -85 4 -285 -3 -406 -6 -104 -9
-148 -21 -250 -14 -117 -21 -597 -10 -616 10 -15 33 -10 40 9 3 11 7 111 10
223 5 264 13 408 31 559 2 25 6 158 8 297 l3 251 37 51 c35 48 48 94 32 119
-3 5 -8 32 -11 58 -6 56 -31 128 -59 167 -17 23 -18 31 -8 45 47 65 50 118 11
199 -46 95 -133 151 -242 155 -51 1 -61 8 -71 50 -17 73 -142 126 -231 98z"/>
<path d="M957 1475 c-27 -26 -31 -57 -11 -72 15 -11 20 -11 32 1 19 19 23 62
7 76 -9 8 -17 7 -28 -5z"/>
<path d="M1834 1402 c-20 -13 -35 -52 -29 -72 8 -24 14 -25 43 -4 36 25 22
100 -14 76z"/>
</g>
</svg>
