<?xml version="1.0" standalone="no"?>
<!DOCTYPE svg PUBLIC "-//W3C//DTD SVG 20010904//EN"
 "http://www.w3.org/TR/2001/REC-SVG-20010904/DTD/svg10.dtd">
<svg version="1.0" xmlns="http://www.w3.org/2000/svg"
 width="238.000000pt" height="238.000000pt" viewBox="0 0 238.000000 238.000000"
 preserveAspectRatio="xMidYMid meet">
<metadata>
Created by potrace 1.11, written by Peter Selinger 2001-2013
</metadata>
<g transform="translate(0.000000,238.000000) scale(0.100000,-0.100000)"
fill="#000000" stroke="none">
<path d="M1200 2333 c-41 -17 -90 -61 -90 -80 0 -20 34 -15 86 12 53 28 81 31
127 11 48 -20 75 -55 78 -101 4 -57 12 -65 57 -53 50 12 70 13 116 3 54 -11
115 -74 143 -148 l22 -57 -24 -47 c-28 -52 -31 -76 -11 -92 18 -15 53 -98 59
-136 2 -17 0 -39 -5 -50 -6 -14 -4 -30 6 -49 23 -45 4 -73 -72 -107 -78 -35
-144 -39 -169 -9 -25 29 -47 25 -78 -16 -55 -72 -187 -99 -272 -56 -40 21 -83
68 -83 91 0 7 -10 15 -22 20 -18 7 -31 2 -62 -25 -97 -83 -255 -82 -307 2 -31
51 -28 88 16 164 25 43 18 67 -18 61 -22 -4 -75 33 -89 63 -21 42 -15 157 10
199 22 38 122 95 165 94 18 -1 38 2 45 7 18 11 14 61 -6 79 -36 33 -12 87 50
112 63 25 88 27 141 11 40 -12 49 -12 61 0 20 19 9 49 -22 64 -66 31 -146 19
-223 -32 -54 -37 -79 -76 -79 -128 0 -38 -2 -40 -65 -76 -111 -61 -146 -129
-147 -280 0 -75 20 -121 67 -153 33 -22 35 -26 28 -60 -28 -128 36 -251 129
-251 28 0 29 -2 24 -37 -3 -21 -8 -101 -11 -178 -3 -77 -8 -176 -11 -220 -18
-256 -4 -327 90 -460 47 -64 98 -96 177 -110 19 -3 39 -11 46 -18 8 -8 15 -58
18 -132 3 -66 8 -128 11 -138 6 -18 31 -19 49 -3 11 9 11 173 1 228 -6 32 15
58 41 52 10 -3 46 2 81 10 121 28 232 150 178 195 -11 9 -19 3 -39 -31 -14
-24 -39 -53 -56 -66 -87 -64 -274 -62 -387 4 -42 24 -94 87 -136 166 -21 39
-23 55 -22 188 0 80 4 210 9 290 4 80 7 170 6 201 l-2 57 43 6 c24 4 67 20 97
36 l55 30 39 -41 c56 -59 129 -90 192 -83 81 8 127 24 174 60 24 18 47 31 51
29 24 -15 122 -14 165 0 26 9 49 14 51 12 14 -14 5 -470 -13 -617 -10 -86 -11
-97 -18 -235 -8 -161 -8 -442 0 -455 10 -16 33 -11 39 8 4 10 8 110 10 223 4
190 12 359 22 454 10 106 15 229 18 432 l3 221 36 49 c41 57 43 64 32 123 -5
25 -8 50 -7 57 4 21 -40 138 -61 161 l-21 22 26 51 c42 80 22 168 -56 251 -53
56 -97 74 -191 79 -46 3 -65 14 -65 39 0 28 -49 81 -95 101 -48 22 -107 23
-155 2z"/>
<path d="M557 1115 c-27 -26 -31 -57 -11 -72 15 -11 20 -11 32 1 19 19 23 62
7 76 -9 8 -17 7 -28 -5z"/>
<path d="M1421 1029 c-23 -24 -26 -45 -12 -68 8 -12 13 -12 36 3 21 14 26 24
23 48 -4 40 -20 45 -47 17z"/>
</g>
</svg>
